<?xml version="1.0" encoding="UTF-8" standalone="no"?>
<svg
version="1.1"
viewBox="0 0 1920 1080"
id="svg145"
sodipodi:docname="output.svg"
inkscape:version="1.3 (0e150ed6c4, 2023-07-21)"
xmlns:inkscape="http://www.inkscape.org/namespaces/inkscape"
xmlns:sodipodi="http://sodipodi.sourceforge.net/DTD/sodipodi-0.dtd"
xmlns="http://www.w3.org/2000/svg"
xmlns:svg="http://www.w3.org/2000/svg">
<sodipodi:namedview
id="namedview145"
pagecolor="#ffffff"
bordercolor="#000000"
borderopacity="0.25"
inkscape:showpageshadow="2"
inkscape:pageopacity="0.0"
inkscape:pagecheckerboard="0"
inkscape:deskcolor="#d1d1d1"
showguides="true"
inkscape:zoom="0.2799099"
inkscape:cx="1523.7046"
inkscape:cy="526.95528"
inkscape:window-width="1600"
inkscape:window-height="811"
inkscape:window-x="-9"
inkscape:window-y="-9"
inkscape:window-maximized="1"
inkscape:current-layer="svg145">
<sodipodi:guide
position="229.74874,938.89447"
orientation="0,-1"
id="guide145"
inkscape:locked="false" />
</sodipodi:namedview>
<defs
id="defs18">

<pattern id="hodnik" width="20" height="20" patternUnits="userSpaceOnUse">
<rect width="20" height="20" fill="antiquewhite" />
<line x1="0" y1="10" x2="20" y2="10" stroke="white" stroke-width="2" />
<line x1="10" y1="0" x2="10" y2="20" stroke="white" stroke-width="2" />
</pattern>
<pattern id="ucilnica" width="100" height="100" patternUnits="userSpaceOnUse"
patternTransform="scale(0.133)"><path id="a" data-color="fill" fill="#B78A5E" 
stroke="#B78A5E" stroke-width="48" d="M49-1h2v102h-2z"></path>
</pattern>

</defs>
<g
id="g145"> <!-- UCILNICE IN HODNIKI !-->
<g
id="g79"
style="fill:#00ffff">
<path
id="path18"
fill="#CCC"
fill-opacity="1"
stroke="none"
d="M 3149.286, -138.193 3149.175, -168.577 z"
fill_rule="evenodd"
style="fill:#00ffff" />
<path
id="path19"
fill="#cccccc"
fill-opacity="1"
stroke="none"
d="M 2755.467,306.213 Z"
fill_rule="evenodd"
style="display:inline;fill:#00ffff" />
<path
id="path3"
fill="#CCC"
fill-opacity="1"
stroke="none"
d="M 2755.000, 182.241 2755.000, 182.241 z"
fill_rule="evenodd"
style="fill:#00ffff" />
<path
id="path4"
fill="url(#a)"
fill-opacity="1"
stroke="none"
d="m 664.364,831.624 45.059,-0.183 -0.021,-6.035 5.949,-0.022 -0.111,-30.398 -51.01,0.189 z"
fill_rule="evenodd"
style="display:inline;fill:#00ffff" />
<path
class="classroom"
class-data="246"
id="path5"
fill="#ff0000"
fill-opacity="1"
stroke="none"
d="m 661.997,831.633 -0.333,-90.792 -84.053,0.312 0.333,90.791 z"
fill_rule="evenodd"
style="display:inline;fill:#ee82ee" />
<path
id="path6"
fill="#ff0000"
fill-opacity="1"
stroke="none"
d="m 1264.762,510.996 -0.09,-36.43 -68.321,0.254 0.134,36.421 z"
fill_rule="evenodd"
style="display:inline;fill:#00ffff" />
<path
class="classroom"
class-data="276"
id="path7"
fill="#ff0000"
fill-opacity="1"
stroke="none"
d="m 1102.388,472.418 -0.53,-121.67 -90.682,0.336 0.445,121.696 z"
fill_rule="evenodd"
style="display:inline;fill:#ee82ee" />
<path
id="path8"
fill="#ff0000"
fill-opacity="1"
stroke="none"
d="m 1194.467,1018.141 -29.583,0.11 0.211,51.619 29.559,-0.096 z"
fill_rule="evenodd"
style="display:inline;fill:#00ffff" />
<path
id="path9"
fill="#ff0000"
fill-opacity="1"
stroke="none"
d="m 1228.732,1018.014 0.189,51.62 29.547,-0.114 -0.189,-51.556 z"
fill_rule="evenodd"
style="display:inline;fill:#00ffff" />
<path
id="path10"
fill="#ff0000"
fill-opacity="1"
stroke="none"
d="m 1196.797,1018.132 0.186,51.633 29.544,-0.122 -0.189,-51.62 z"
fill_rule="evenodd"
style="display:inline;fill:#00ffff" />
<path
id="path11"
fill="#ff0000"
fill-opacity="1"
stroke="none"
d="m 1009.29,472.789 -0.332,-90.642 -28.744,0.106 0.332,90.64 z"
fill_rule="evenodd"
style="display:inline;fill:#00ffff" />
<path
id="path12"
fill="#ff0000"
fill-opacity="1"
stroke="none"
d="m 869.637,473.369 -0.282,-90.704 -44.184,0.164 0.332,90.704 z"
fill_rule="evenodd"
style="display:inline;fill:#00ffff" />
<path
id="path13"
fill="#ff0000"
fill-opacity="1"
stroke="none"
d="m 1138.158,970.183 -37.411,0.142 0.085,19.208 37.397,-0.137 z"
fill_rule="evenodd"
style="display:inline;fill:#00ffff" />
<path
id="path14"
fill="red"
fill-opacity="1"
stroke="none"
d="M 1234.999, 443.433 1235.105, 472.278 1264.671, 472.168 1264.600, 443.323 1234.999, 443.433 z"
fill_rule="evenodd"
style="fill:#00ffff" />
<path
id="path15"
fill="red"
fill-opacity="1"
stroke="none"
d="M 717.000, 794.980 717.111, 825.378 723.151, 825.355 723.164, 831.406 733.842, 831.366 734.436, 831.327 734.303, 794.915 717.000, 794.980 z"
fill_rule="evenodd"
style="fill:#00ffff" />
<path
class="classroom"
class-data="284"
id="path16"
fill="red"
fill-opacity="1"
stroke="none"
d="M 1257.370, 790.346 1257.233, 699.671 1143.773, 700.092 1144.043, 790.737 1257.370, 790.346 z"
fill_rule="evenodd"
style="fill:#ee82ee" />
<path
class="classroom"
class-data="278"
id="path17"
fill="red"
fill-opacity="1"
stroke="none"
d="M 1264.600, 440.955 1264.631, 350.425 1143.003, 350.627 1143.293, 441.363 1264.600, 440.955 z"
fill_rule="evenodd"
style="fill:#ee82ee" />
<path
id="path20"
fill="red"
fill-opacity="1"
stroke="none"
d="M 1137.781, 868.391 1100.377, 868.530 1100.506, 903.117 1137.910, 902.978 1137.781, 868.391 z"
fill_rule="evenodd"
style="fill:#00ffff" />
<path
id="path21"
fill="red"
fill-opacity="1"
stroke="none"
d="M 786.111, 864.331 756.897, 864.441 757.172, 939.587 786.386, 939.478 786.111, 864.331 z"
fill_rule="evenodd"
style="fill:#00ffff" />
<path
id="path22"
fill="red"
fill-opacity="1"
stroke="none"
d="M 754.529, 864.450 695.550, 864.932 695.824, 939.815 754.804, 939.596 754.529, 864.450 z"
fill_rule="evenodd"
style="fill:#00ffff" />
<path
id="path23"
fill="red"
fill-opacity="1"
stroke="none"
d="M 693.148, 864.941 664.460, 865.003 664.754, 939.930 693.422, 939.823 693.148, 864.941 z"
fill_rule="evenodd"
style="fill:#00ffff" />
<path
id="path24"
fill="red"
fill-opacity="1"
stroke="none"
d="M 744.968, 225.606 662.040, 225.914 662.142, 254.560 745.070, 254.253 744.968, 225.606 z"
fill_rule="evenodd"
style="fill:#00ffff" />
<path
class="classroom"
class-data="knjiznica"
id="path25"
fill="#ff0000"
fill-opacity="1"
stroke="none"
d="m 1098.6,655.932 3.374,0.113 0.679,-123.962 -17.736,-17.912 -119.556,0.467 0.454,124.057 0.065,17.664 z"
fill_rule="evenodd"
style="display:inline;fill:#ee82ee" />
<path
id="path26"
fill="red"
fill-opacity="1"
stroke="none"
d="M 1098.293, 946.323 1097.850, 831.651 1011.212, 831.972 1011.634, 946.645 1098.293, 946.323 z"
fill_rule="evenodd"
style="fill:#00ffff" />
<path
id="path27"
fill="red"
fill-opacity="1"
stroke="none"
d="M 921.249, 946.981 1009.184, 946.654 1008.788, 831.981 920.540, 832.309 921.249, 946.981 z"
fill_rule="evenodd"
style="fill:#00ffff" />
<path
class="classroom"
class-data="263"
id="path28"
fill="red"
fill-opacity="1"
stroke="none"
d="M 752.693, 223.229 752.361, 132.585 661.704, 132.922 662.036, 223.565 752.693, 223.229 z"
fill_rule="evenodd"
style="fill:#ee82ee" />
<path
class="classroom"
class-data="fablab"
id="path29"
fill="red"
fill-opacity="1"
stroke="none"
d="M 788.282, 709.609 701.691, 709.931 701.775, 792.654 788.566, 792.332 788.282, 709.609 z"
fill_rule="evenodd"
style="fill:#ee82ee" />
<path
id="path30"
fill="red"
fill-opacity="1"
stroke="none"
d="M 918.154, 832.317 829.954, 832.645 830.448, 947.318 918.684, 946.990 918.154, 832.317 z"
fill_rule="evenodd"
style="fill:#00ffff" />
<path
class="classroom"
class-data="274"
id="path31"
fill="red"
fill-opacity="1"
stroke="none"
d="M 977.796, 382.262 871.694, 382.656 872.082, 473.360 946.042, 473.085 955.156, 472.972 963.767, 472.955 978.128, 472.902 977.796, 382.262 z"
fill_rule="evenodd"
style="fill:#ee82ee" />
<path
id="path32"
fill="red"
fill-opacity="1"
stroke="none"
d="M 575.261, 741.161 546.687, 741.267 546.983, 822.017 575.557, 821.983 575.261, 741.161 z"
fill_rule="evenodd"
style="fill:#00ffff" />
<path
id="path33"
fill="red"
fill-opacity="1"
stroke="none"
d="M 457.842, 741.597 429.197, 741.704 429.493, 822.416 458.138, 822.306 457.842, 741.597 z"
fill_rule="evenodd"
style="fill:#00ffff" />
<path
id="path34"
fill="red"
fill-opacity="1"
stroke="none"
d="M 786.432, 352.018 786.670, 416.838 820.583, 416.712 820.345, 351.892 786.432, 352.018 z"
fill_rule="evenodd"
style="fill:#00ffff" />
<path
id="path35"
fill="red"
fill-opacity="1"
stroke="none"
d="M 1137.919, 905.351 1100.515, 905.490 1100.678, 946.315 1138.070, 946.176 1137.919, 905.351 z"
fill_rule="evenodd"
style="fill:#00ffff" />
<path
id="path36"
fill="red"
fill-opacity="1"
stroke="none"
d="M 788.273, 707.278 787.950, 615.615 701.127, 615.937 701.683, 707.600 788.273, 707.278 z"
fill_rule="evenodd"
style="fill:#00ffff" />
<path
id="path37"
fill="red"
fill-opacity="1"
stroke="none"
d="M 752.807, 256.622 662.150, 256.958 662.481, 347.638 753.138, 347.301 752.807, 256.622 z"
fill_rule="evenodd"
style="fill:#00ffff" />
<path
class="classroom"
class-data="269"
id="path38"
fill="red"
fill-opacity="1"
stroke="none"
d="M 876.995, 349.271 876.657, 256.302 786.082, 256.638 786.424, 349.607 876.995, 349.271 z"
fill_rule="evenodd"
style="fill:#ee82ee" />
<path
class="classroom"
class-data="264"
id="path39"
fill="red"
fill-opacity="1"
stroke="none"
d="M 751.906, 8.385 661.249, 8.721 661.695, 130.486 744.623, 130.179 744.509, 99.124 752.238, 99.095 751.906, 8.385 z"
fill_rule="evenodd"
style="fill:#ee82ee" />
<path
class="classroom"
class-data="265"
id="path40"
fill="red"
fill-opacity="1"
stroke="none"
d="M 875.785, 8.077 785.210, 8.413 785.537, 99.086 793.379, 99.057 793.488, 130.022 876.220, 129.715 875.785, 8.077 z"
fill_rule="evenodd"
style="fill:#ee82ee" />
<path
id="path41"
fill="red"
fill-opacity="1"
stroke="none"
d="M 876.650, 253.862 876.550, 225.241 793.817, 225.548 793.917, 254.169 876.650, 253.862 z"
fill_rule="evenodd"
style="fill:#00ffff" />
<path
id="path42"
fill="red"
fill-opacity="1"
stroke="none"
d="M 1138.079, 948.532 1100.687, 948.671 1100.738, 967.900 1138.149, 967.750 1138.079, 948.532 z"
fill_rule="evenodd"
style="fill:#00ffff" />
<path
id="path43"
fill="red"
fill-opacity="1"
stroke="none"
d="M 1174.638, 831.383 1174.998, 937.561 1280.672, 937.590 1280.774, 831.312 1174.638, 831.383 z"
fill_rule="evenodd"
style="fill:#00ffff" />
<path
id="path44"
fill="red"
fill-opacity="1"
stroke="none"
d="M 1158.335, 831.436 1156.190, 831.395 1139.917, 831.455 1140.571, 991.821 1100.841, 991.976 1100.934, 1016.105 1258.279, 1015.547 1258.203, 978.863 1245.587, 978.899 1244.627, 978.874 1172.294, 979.061 1172.299, 976.679 1244.631, 976.492 1245.591, 976.518 1245.793, 940.171 1174.995, 939.995 1175.055, 956.206 1209.684, 956.138 1209.693, 958.562 1172.667, 958.700 1172.211, 831.380 1158.335, 831.436 z"
fill_rule="evenodd"
style="fill:#00ffff" />
<path
id="path45"
fill="red"
fill-opacity="1"
stroke="none"
d="M 957.043, 797.726 949.435, 797.749 z"
fill_rule="evenodd"
style="fill:#00ffff" />
<path
class="classroom"
class-data="253"
id="path46"
fill="red"
fill-opacity="1"
stroke="none"
d="M 787.596, 522.582 700.787, 522.905 701.119, 613.598 787.942, 613.276 787.596, 522.582 z"
fill_rule="evenodd"
style="fill:#ee82ee" />
<path
class="classroom"
class-data="240"
id="path47"
fill="red"
fill-opacity="1"
stroke="none"
d="M 662.424, 955.495 662.101, 865.012 578.030, 865.324 578.362, 955.807 662.424, 955.495 z"
fill_rule="evenodd"
style="fill:#ee82ee" />
<path
class="classroom"
class-data="242"
id="path48"
fill="red"
fill-opacity="1"
stroke="none"
d="M 343.159, 866.011 343.491, 956.678 427.600, 956.366 427.268, 865.755 343.159, 866.011 z"
fill_rule="evenodd"
style="fill:#ee82ee" />
<path
class="classroom"
class-data="244"
id="path49"
fill="red"
fill-opacity="1"
stroke="none"
d="M 427.123, 832.395 426.791, 741.712 342.697, 742.025 343.030, 832.688 427.123, 832.395 z"
fill_rule="evenodd"
style="fill:#ee82ee" />
<path
class="classroom"
class-data="245"
id="path50"
fill="red"
fill-opacity="1"
stroke="none"
d="M 544.611, 831.996 544.279, 741.276 460.190, 741.589 460.523, 832.268 544.611, 831.996 z"
fill_rule="evenodd"
style="fill:#ee82ee" />
<path
id="path51"
fill="red"
fill-opacity="1"
stroke="none"
d="M 429.676, 875.229 429.964, 956.357 458.563, 956.251 458.267, 875.233 429.676, 875.229 z"
fill_rule="evenodd"
style="fill:#00ffff" />
<path
class="classroom"
class-data="259"
id="path53"
fill="red"
fill-opacity="1"
stroke="none"
d="M 753.699, 481.556 753.350, 390.858 613.795, 391.378 614.127, 482.074 753.699, 481.556 z"
fill_rule="evenodd"
style="fill:#ee82ee" />
<path
class="classroom"
class-data="267"
id="path54"
fill="red"
fill-opacity="1"
stroke="none"
d="M 785.977, 223.162 876.552, 222.826 876.224, 132.102 785.650, 132.438 785.977, 223.162 z"
fill_rule="evenodd"
style="fill:#ee82ee" />
<path
id="path55"
fill="red"
fill-opacity="1"
stroke="none"
d="M 547.077, 874.775 547.374, 955.922 575.948, 955.816 575.651, 874.805 547.077, 874.775 z"
fill_rule="evenodd"
style="fill:#00ffff" />
<path
class="classroom"
class-data="282"
id="path52-merged"
fill="red"
fill-opacity="1"
stroke="none"
d="M 1257.013, 513.438 1143.138, 513.860 1143.769, 697.735 1257.228, 697.314 1257.013, 513.438 z"
fill_rule="evenodd"
style="fill:#ee82ee" />
<path
class="classroom"
class-data="241"
id="path57"
fill="red"
fill-opacity="1"
stroke="none"
d="M 460.587, 865.642 460.919, 956.242 545.025, 955.930 544.694, 865.431 460.587, 865.642 z"
fill_rule="evenodd"
style="fill:#ee82ee" />
<path
class="classroom"
class-data="289"
id="path58"
fill="red"
fill-opacity="1"
stroke="none"
d="M 962.970, 514.647 844.125, 515.111 825.931, 533.883 825.911, 656.671 827.854, 656.734 963.489, 656.367 962.970, 514.647 z"
fill_rule="evenodd"
style="fill:#ee82ee" />
<path
id="path59"
fill="red"
fill-opacity="1"
stroke="none"
d="M 1137.643, 831.463 1100.291, 831.642 1100.368, 866.189 1137.772, 866.050 1137.643, 831.463 z"
fill_rule="evenodd"
style="fill:#00ffff"
inkscape:label="path59" />
<path
id="path60"
fill="red"
fill-opacity="1"
stroke="none"
d="M 662.490, 350.003 662.632, 388.810 745.536, 388.501 745.418, 349.695 662.490, 350.003 z"
fill_rule="evenodd"
style="fill:#00ffff" />
<path
id="path61"
fill="red"
fill-opacity="1"
stroke="none"
d="m 1177.065,474.519 v 1.162 l 0.33,-1.163 8.097,-0.056 -3.729,0.051 11.998,-0.081 38.987,-0.145 -0.106,-28.845 -128.108,0.352 0.197,31.028 -281.574,1.062 -0.199,-54.398 -36.272,0.135 -0.008,-2.349 h -0.003 l 0.208,56.958 -2.328,0.008 -0.817,-222.031 7.738,-0.029 -0.1,-28.621 -7.738,0.028 -0.33,-95.525 7.738,-0.029 -0.102,-28.623 -7.738,0.029 -0.294,-82.189 -28.601,0.115 0.301,82.124 -7.686,0.028 0.105,28.655 7.686,-0.029 0.345,95.428 -7.686,0.028 0.102,28.647 7.687,-0.029 0.373,95.442 -7.712,0.029 0.127,38.806 7.717,-0.03 0.543,131.817 33.778,-0.126 0.525,143.191 0.472,131.361 -54.333,0.202 0.134,36.411 54.281,-0.202 0.009,2.389 -56.638,0.21 -0.595,-0.018 -11.905,0.023 -0.026,-7.163 -11.353,0.042 0.026,7.165 -134.99,0.528 -0.037,-9.97 -28.574,0.031 0.037,9.971 -88.845,0.396 -0.036,-9.97 -28.646,-0.003 0.037,9.97 -72.143,0.284 0.105,28.588 72.123,-0.198 0.045,9.513 28.59,-0.115 -0.035,-9.491 88.81,-0.318 0.035,9.574 28.575,-0.088 -0.035,-9.518 252.096,-1.122 -0.108,-31.593 12.297,-0.046 9.399,-0.035 116.617,-0.432 89.845,-0.334 42.087,-0.156 148.085,-0.133 -0.097,-36.402 -104.14,0.386 -0.995,-281.633 53.404,-0.198 -0.14,-36.421 -54.26,0.201 v -2.398 l 27.901,-0.103 9.466,-0.01 -10e-4,-0.025 -43.953,597.508 v 0.04 l 0.01,-0.04 29.602,-0.124 -0.193,-51.618 -29.607,0.109 0.189,51.632 v 0 10e-4 l -2.354,0.01 -29.579,0.122 -0.235,-51.645 29.625,-0.11 0.189,51.633 2.354,-0.01 z m -326.253,326.168 -7.899,0.013 -18.551,-18.722 -0.338,-17.748 2.674,-0.053 0.061,16.24 17.736,17.912 14.504,0.146 -0.023,2.199 z m 236.568,-1.575 -17.742,0.339 -0.053,-2.675 16.235,-0.061 17.908,-17.743 -0.292,-14.446 2.197,-0.099 0.464,16.128 z m -121.042,-19.113 0.063,17.236 15.14,-0.136 10e-4,0.12 h 0.074 l -0.045,2.431 -24.528,0.076 h 0.056 l -7.664,0.023 -0.058,-2.369 14.633,-0.134 -0.063,-17.234 z M 823.411,666.86 l -0.008,-2.114 -0.226,-130.472 19.657,-19.589 243.665,-0.884 18.551,18.722 -0.344,133.029 -2.433,-0.02 -0.016,-4.356 -140.502,0.68 -135.949,0.658 0.035,4.369 z"
fill_rule="evenodd"
style="display:inline;fill:#00ffff" />
</g>
<!-- STENE!!! !-->
<g
groupmode="layer"
label="strokes"
id="strokes">
<path
id="path80"
fill="none"
stroke="#000000"
stroke-linecap="butt"
stroke-linejoin="round"
stroke-opacity="1"
stroke-width="3"
d="m 850.812,798.687 -7.899,0.013 -7.039,-7.104 -7.038,-7.103 -4.474,-4.515 -0.191,-9.998 -0.147,-7.75 2.674,-0.053 0.037,10 0.024,6.24 7.036,7.106 7.036,7.106 3.664,3.7 9.999,0.1 4.505,0.046 -0.023,2.199 -8.164,0.013"
style="display:inline" />
<path
id="path81"
fill="none"
stroke="#000000"
stroke-linecap="butt"
stroke-linejoin="round"
stroke-opacity="1"
stroke-width="3"
d="m 1177.064,472.494 10e-4,0.025 v 1.162 l 0.33,-1.163 8.097,-0.056 -3.729,0.051 10,-0.068 1.998,-0.013 10,-0.038 10,-0.037 9.999,-0.037 8.988,-0.033 -0.037,-10 -0.037,-10 -0.032,-8.845 -10,0.028 -10,0.027 -10,0.028 -10,0.027 -10,0.028 -10,0.027 -10,0.028 -10,0.027 -10,0.028 -10,0.027 -10,0.027 -10,0.028 -8.108,0.022 0.063,10 0.064,10 0.063,10 0.01,1.028 -10,0.038 -10,0.038 -10,0.038 -10,0.037 -10,0.038 -10,0.038 -10,0.037 -10,0.038 -9.999,0.038 -10,0.038 -10,0.037 -10,0.038 -10,0.038 -10,0.037 -10,0.038 -10,0.038 -10,0.038 -10,0.037 -10,0.038 -10,0.038 -10,0.037 -10,0.038 -9.999,0.038 -10,0.038 -10,0.037 -10,0.038 -10,0.038 -11.576,0.043 -0.036,-10 -0.037,-9.999 -0.036,-10 -0.037,-10 -0.037,-10 -0.016,-4.399 -10,0.037 -10,0.037 -10,0.037 -6.272,0.024 -0.008,-2.349 h -0.003 l 0.036,10 0.037,10 0.036,10 0.037,10 0.037,10 0.025,6.958 -2.328,0.008 -0.037,-10 -0.037,-9.999 -0.036,-10 -0.037,-10 -0.037,-10 -0.037,-10 -0.037,-10 -0.036,-10 -0.037,-10 -0.037,-10 -0.037,-10 -0.037,-10 -0.036,-10 -0.037,-10 -0.037,-10 -0.037,-9.999 -0.037,-10 -0.036,-10 -0.037,-10 -0.037,-10 -0.037,-10 -0.044,-12.033 7.738,-0.029 -0.035,-10 -0.035,-10 -0.03,-8.621 -7.738,0.028 -0.034,-10 -0.035,-10 -0.034,-9.999 -0.035,-10 -0.035,-10 -0.034,-10 -0.035,-10 -0.034,-10 -0.035,-10 -0.019,-5.526 7.738,-0.029 -0.035,-10 -0.036,-10 -0.031,-8.623 -7.738,0.029 -0.036,-10 -0.036,-10 -0.035,-10 -0.036,-10 -0.036,-9.999 -0.036,-10 -0.036,-10 -0.035,-10 -0.008,-2.19 -10,0.041 -10,0.04 -8.601,0.034 0.037,10 0.037,10 0.036,10 0.037,10 0.037,10 0.036,10 0.037,10 0.037,10 0.007,2.124 -7.686,0.028 0.037,10 0.036,10 0.032,8.655 7.686,-0.029 0.036,10 0.037,10 0.036,10 0.036,10 0.036,10 0.036,10 0.036,10 0.036,10 0.036,9.999 0.02,5.429 -7.686,0.028 0.036,10 0.035,10 0.031,8.647 7.687,-0.029 0.039,10 0.039,10 0.039,10 0.039,10 0.039,10 0.039,10 0.039,10 0.039,10 0.039,10 0.022,5.442 -7.712,0.029 0.033,10 0.033,10 0.032,10 0.029,8.806 7.717,-0.03 0.041,10 0.041,10 0.041,9.999 0.042,10 0.041,10 0.041,10 0.041,10 0.041,10 0.042,10 0.041,10 0.041,10 0.041,10 0.042,10 0.007,1.818 10,-0.038 10,-0.037 10,-0.037 3.778,-0.014 0.037,10 0.036,10 0.037,10 0.037,10 0.036,10 0.037,10 0.036,10 0.037,10 0.037,10 0.036,9.999 0.037,10 0.037,10 0.036,10 0.037,10 0.012,3.192 0.036,10 0.036,10 0.036,10 0.036,10 0.035,10 0.036,10 0.036,10 0.036,10 0.036,10 0.036,10 0.036,10 0.036,9.999 0.036,10 0.005,1.362 -10,0.037 -10,0.037 -10,0.037 -10,0.037 -10,0.037 -4.333,0.017 0.037,9.999 0.036,10 0.037,10 0.024,6.412 9.999,-0.037 10,-0.037 10,-0.037 10,-0.038 10,-0.037 4.282,-0.016 0.009,2.389 -10,0.037 -10,0.037 -10,0.037 -10,0.037 -9.999,0.037 -6.639,0.025 -0.595,-0.018 -10,0.019 -1.905,0.004 -0.026,-7.163 -10,0.037 -1.353,0.005 0.026,7.165 -10,0.04 -10,0.039 -10,0.039 -9.999,0.039 -10,0.039 -10,0.039 -10,0.039 -10,0.039 -10,0.039 -10,0.039 -10,0.04 -10,0.039 -10,0.039 -4.991,0.019 -0.037,-9.97 -10,0.011 -10,0.011 -8.574,0.009 0.037,9.971 -10,0.044 -10,0.045 -10,0.044 -10,0.045 -10,0.045 -10,0.044 -10,0.045 -10,0.045 -8.845,0.039 -0.036,-9.97 -10,-10e-4 -10,-10e-4 -8.646,-0.001 0.037,9.97 -10,0.04 -10,0.039 -10,0.039 -10,0.04 -10,0.039 -10,0.04 -10,0.039 -2.143,0.008 0.037,10 0.036,10 0.032,8.588 10,-0.027 10,-0.028 10,-0.027 10,-0.028 10,-0.027 10,-0.028 10,-0.027 2.123,-0.006 0.045,9.513 10,-0.04 10,-0.04 8.59,-0.035 -0.035,-9.491 10,-0.036 10,-0.036 10,-0.036 10,-0.035 10,-0.036 9.999,-0.036 10,-0.036 10,-0.036 8.811,-0.031 0.035,9.574 10,-0.031 10,-0.031 8.575,-0.026 -0.035,-9.518 10,-0.045 9.999,-0.044 10,-0.045 10,-0.044 10,-0.045 10,-0.044 10,-0.045 10,-0.044 10,-0.045 10,-0.044 10,-0.045 9.999,-0.044 10,-0.045 10,-0.044 10,-0.045 10,-0.044 10,-0.045 10,-0.044 10,-0.045 10,-0.044 10,-0.045 9.999,-0.044 10,-0.045 10,-0.045 12.099,-0.053 -0.034,-10 -0.034,-10 -0.034,-10 -0.006,-1.593 10,-0.037 2.297,-0.009 9.399,-0.035 10,-0.037 10,-0.037 10,-0.037 10,-0.037 10,-0.037 9.999,-0.037 10,-0.037 10,-0.037 10,-0.038 10,-0.037 10,-0.037 6.618,-0.024 10,-0.037 10,-0.038 10,-0.037 10,-0.037 10,-0.037 10,-0.037 10,-0.037 10,-0.037 9.845,-0.037 10,-0.037 9.999,-0.037 10,-0.037 10,-0.037 2.088,-0.008 10,-0.009 10,-0.009 10,-0.009 10,-0.009 10,-0.009 10,-0.009 10,-0.009 10,-0.009 10,-0.009 10,-0.009 10,-0.009 10,-0.009 10,-0.009 10,-0.009 8.085,-0.007 -0.027,-10 -0.026,-10 -0.027,-10 -0.017,-6.402 -10,0.037 -10,0.037 -10,0.037 -10,0.037 -10,0.037 -10,0.037 -9.999,0.037 -10,0.038 -10,0.037 -10,0.037 -4.141,0.015 -0.035,-10 -0.035,-10 -0.036,-10 -0.035,-10 -0.035,-10 -0.036,-9.999 -0.035,-10 -0.035,-10 -0.036,-10 -0.035,-10 -0.035,-10 -0.036,-10 -0.035,-10 -0.036,-10 -0.035,-10 -0.035,-10 -0.036,-10 -0.035,-10 -0.035,-10 -0.036,-10 -0.035,-10 -0.035,-9.999 -0.036,-10 -0.035,-10 -0.035,-10 -0.036,-10 -0.035,-10 -0.041,-11.635 10,-0.037 10,-0.037 9.999,-0.037 10,-0.037 10,-0.037 3.405,-0.013 -0.038,-10 -0.038,-10 -0.039,-10 -0.025,-6.421 -9.999,0.037 -10,0.037 -10,0.037 -10,0.037 -10,0.037 -4.261,0.016 v -2.398 l 10,-0.037 10,-0.037 7.901,-0.029 9.466,-0.01"
style="display:inline" />
<path
id="path82"
fill="none"
stroke="#000000"
stroke-linecap="butt"
stroke-linejoin="round"
stroke-opacity="1"
stroke-width="3"
d="m 662.49,350.003 0.036,10 0.037,10 0.036,10 0.033,8.807 9.999,-0.037 10,-0.037 10,-0.038 10,-0.037 10,-0.037 10,-0.038 10,-0.037 10,-0.037 2.905,-0.011 -0.03,-10 -0.031,-10 -0.03,-10 -0.027,-8.806 -10,0.037 -10,0.037 -10,0.037 -10,0.037 -10,0.038 -10,0.037 -10,0.037 -10,0.037 -2.928,0.011"
style="display:inline" />
<path
id="path83"
fill="none"
stroke="#000000"
stroke-linecap="butt"
stroke-linejoin="round"
stroke-opacity="1"
stroke-width="3"
d="m 1137.643,831.463 -9.999,0.048 -10,0.048 -10,0.047 -7.353,0.036 0.022,9.999 0.023,10 0.022,10 0.01,4.548 10,-0.037 10,-0.038 10,-0.037 7.404,-0.027 -0.037,-10 -0.037,-10 -0.037,-10 -0.018,-4.587"
style="display:inline" />
<path
id="path84"
fill="none"
stroke="#000"
stroke-linecap="butt"
stroke-linejoin="round"
stroke-opacity="1"
stroke-width="3"
d="m 962.97,514.647 -10,0.039 -10,0.039 -10,0.039 -10,0.039 -10,0.039 -10,0.039 -10,0.039 -9.999,0.039 -10,0.04 -10,0.039 -10,0.039 -8.846,0.034 -6.96,7.181 -6.96,7.18 -4.274,4.411 -0.002,10 -0.002,10 -10e-4,10 -0.002,10 -10e-4,10 -0.002,10 -0.002,10 -10e-4,10 -0.002,10 -0.002,10 -10e-4,10 -0.002,10 v 2.788 l 1.943,0.063 10,-0.027 10,-0.027 10,-0.027 10,-0.027 10,-0.027 10,-0.027 10,-0.027 10,-0.027 9.999,-0.027 10,-0.027 10,-0.027 10,-0.028 10,-0.027 5.636,-0.015 -0.037,-10 -0.036,-10 -0.037,-10 -0.036,-10 -0.037,-10 -0.037,-9.999 -0.036,-10 -0.037,-10 -0.037,-10 -0.036,-10 -0.037,-10 -0.037,-10 -0.036,-10 -0.037,-10 -0.006,-1.721"
style="display:inline" />
<path
id="path85"
fill="none"
stroke="#000000"
stroke-linecap="butt"
stroke-linejoin="round"
stroke-opacity="1"
stroke-width="3"
d="m 1087.38,797.112 -9.998,0.191 -7.744,0.148 -0.053,-2.675 10,-0.038 6.235,-0.023 7.104,-7.039 7.104,-7.038 3.7,-3.666 -0.202,-9.998 -0.09,-4.448 2.197,-0.099 0.288,9.995 0.176,6.133 -7.101,7.04 -7.101,7.041 -4.515,4.476"
style="display:inline" />
<path
id="path86"
fill="none"
stroke="#000"
stroke-linecap="butt"
stroke-linejoin="round"
stroke-opacity="1"
stroke-width="3"
d="m 460.587,865.642 0.037,10 0.037,10 0.036,10 0.037,10 0.036,10 0.037,10 0.037,10 0.036,10 0.039,10.6 10,-0.037 10,-0.037 10,-0.037 10,-0.037 10,-0.037 10,-0.037 10,-0.037 10,-0.037 4.106,-0.016 -0.036,-10 -0.037,-10 -0.037,-9.999 -0.036,-10 -0.037,-10 -0.036,-10 -0.037,-10 -0.037,-10 -0.038,-10.5 -10,0.025 -10,0.025 -10,0.026 -10,0.025 -10,0.025 -10,0.025 -10,0.025 -10,0.025 -4.107,0.01"
style="display:inline" />
<path
id="path88"
fill="none"
stroke="#000"
stroke-linecap="butt"
stroke-linejoin="round"
stroke-opacity="1"
stroke-width="3"
d="M 1130.757, 1070.011 1133.111, 1070.001 1133.111, 1070.002 1133.111, 1070.042 1133.120, 1070.002 1143.120, 1069.960 1153.120, 1069.918 1162.722, 1069.878 1162.684, 1059.879 1162.647, 1049.879 1162.610, 1039.879 1162.573, 1029.879 1162.535, 1019.879 1162.529, 1018.260 1152.529, 1018.297 1142.529, 1018.334 1132.922, 1018.369 1132.958, 1028.369 1132.995, 1038.369 1133.032, 1048.369 1133.068, 1058.369 1133.105, 1068.369 1133.111, 1070.001" />
<path
id="path89"
fill="none"
stroke="#000"
stroke-linecap="butt"
stroke-linejoin="round"
stroke-opacity="1"
stroke-width="3"
d="M 1133.111, 1070.001 1133.111, 1070.001" />
<path
id="path90"
fill="none"
stroke="#000"
stroke-linecap="butt"
stroke-linejoin="round"
stroke-opacity="1"
stroke-width="3"
d="M 1133.111, 1070.001 1133.111, 1070.001 1143.111, 1069.960 1153.111, 1069.918 1162.722, 1069.878" />
<path
id="path91"
fill="none"
stroke="#000"
stroke-linecap="butt"
stroke-linejoin="round"
stroke-opacity="1"
stroke-width="3"
d="M 547.077, 874.775 547.113, 884.775 547.150, 894.775 547.186, 904.774 547.223, 914.774 547.260, 924.774 547.296, 934.774 547.333, 944.774 547.370, 954.774 547.374, 955.922 557.374, 955.885 567.374, 955.847 575.948, 955.816 575.911, 945.816 575.875, 935.816 575.838, 925.816 575.801, 915.816 575.765, 905.816 575.728, 895.816 575.691, 885.816 575.655, 875.816 575.651, 874.805 565.651, 874.794 555.651, 874.784 547.077, 874.775" />
<path
id="path92"
fill="none"
stroke="#000"
stroke-linecap="butt"
stroke-linejoin="round"
stroke-opacity="1"
stroke-width="3"
d="M 785.977, 223.162 795.977, 223.125 805.977, 223.088 815.977, 223.051 825.977, 223.014 835.977, 222.976 845.976, 222.939 855.976, 222.902 865.976, 222.865 876.552, 222.826 876.515, 212.826 876.479, 202.826 876.443, 192.826 876.407, 182.826 876.371, 172.826 876.335, 162.826 876.299, 152.826 876.263, 142.826 876.224, 132.102 866.224, 132.139 856.224, 132.176 846.224, 132.213 836.224, 132.250 826.225, 132.287 816.225, 132.324 806.225, 132.361 796.225, 132.398 785.650, 132.438 785.686, 142.438 785.722, 152.438 785.758, 162.438 785.794, 172.438 785.830, 182.437 785.866, 192.437 785.902, 202.437 785.938, 212.437 785.977, 223.162" />
<path
id="path93"
fill="none"
stroke="#000"
stroke-linecap="butt"
stroke-linejoin="round"
stroke-opacity="1"
stroke-width="3"
d="M 966.338, 777.999 966.375, 787.999 966.401, 795.235 976.401, 795.145 981.541, 795.099 981.542, 795.219 981.616, 795.219 981.571, 797.650 971.571, 797.681 961.572, 797.712 957.043, 797.726 957.099, 797.726 949.435, 797.749 949.377, 795.380 959.377, 795.288 964.010, 795.246 963.974, 785.246 963.947, 778.012 966.338, 777.999" />
<path
id="path94"
fill="none"
stroke="#000"
stroke-linecap="butt"
stroke-linejoin="round"
stroke-opacity="1"
stroke-width="3"
d="M 753.699, 481.556 753.660, 471.556 753.622, 461.556 753.583, 451.556 753.545, 441.556 753.506, 431.556 753.468, 421.556 753.429, 411.556 753.391, 401.557 753.350, 390.858 743.350, 390.895 733.350, 390.932 723.350, 390.969 713.350, 391.007 703.350, 391.044 693.350, 391.081 683.350, 391.119 673.350, 391.156 663.350, 391.193 653.350, 391.230 643.350, 391.268 633.351, 391.305 623.351, 391.342 613.795, 391.378 613.832, 401.378 613.868, 411.378 613.905, 421.378 613.942, 431.378 613.978, 441.378 614.015, 451.377 614.052, 461.377 614.088, 471.377 614.127, 482.074 624.127, 482.037 634.127, 482.000 644.127, 481.963 654.127, 481.925 664.127, 481.888 674.127, 481.851 684.127, 481.814 694.127, 481.777 704.127, 481.740 714.127, 481.703 724.127, 481.666 734.127, 481.629 744.127, 481.591 753.699, 481.556" />
<path
id="path87-95"
fill="none"
stroke="#000"
stroke-linecap="butt"
stroke-linejoin="round"
stroke-opacity="1"
stroke-width="3"
d="M 1257.013, 513.438 1247.013, 513.475 1237.013, 513.512 1227.013, 513.549 1217.013, 513.586 1207.014, 513.623 1197.014, 513.660 1187.014, 513.698 1177.014, 513.735 1167.014, 513.772 1157.014, 513.809 1147.014, 513.846 1143.138, 513.860 1143.170, 523.860 1143.201, 533.860 1143.233, 543.860 1143.265, 553.860 1143.296, 563.860 1143.328, 573.860 1143.359, 583.860 1143.391, 593.860 1143.429, 587.035 1143.467, 607.035 1143.504, 627.035 1143.542, 637.035 1143.579, 647.035 1143.617, 657.035 1143.654, 667.034 1143.692, 677.034 1143.729, 687.034 1143.769, 697.735 1153.769, 697.697 1163.769, 697.660 1173.769, 697.623 1183.769, 697.586 1193.769, 697.549 1203.769, 697.512 1213.769, 697.475 1223.769, 697.438 1233.769, 697.401 1243.769, 697.363 1253.768, 697.326 1257.228, 697.314 1257.237, 687.314 1257.246, 677.314 1257.255, 667.314 1257.264, 657.314 1257.273, 647.314 1257.282, 637.314 1257.291, 627.314 1257.300, 617.314 1257.310, 606.612 1257.330, 586.612 1257.273, 594.176 1257.241, 584.176 1257.209, 574.177 1257.177, 564.177 1257.144, 554.177 1257.112, 544.177 1257.080, 534.177 1257.048, 524.177 1257.013, 513.438" />	  
<path
id="path96"
fill="none"
stroke="#000"
stroke-linecap="butt"
stroke-linejoin="round"
stroke-opacity="1"
stroke-width="3"
d="M 429.676, 875.229 429.712, 885.229 429.747, 895.229 429.783, 905.228 429.818, 915.228 429.853, 925.228 429.889, 935.228 429.924, 945.228 429.960, 955.228 429.964, 956.357 439.964, 956.320 449.964, 956.283 458.563, 956.251 458.527, 946.251 458.490, 936.251 458.453, 926.251 458.417, 916.251 458.380, 906.252 458.344, 896.252 458.307, 886.252 458.270, 876.252 458.267, 875.233 448.267, 875.231 438.267, 875.230 429.676, 875.229" />
<path
id="path97"
fill="none"
stroke="#000"
stroke-linecap="butt"
stroke-linejoin="round"
stroke-opacity="1"
stroke-width="3"
d="M 544.611, 831.996 544.574, 821.997 544.538, 811.997 544.501, 801.997 544.464, 791.997 544.428, 781.997 544.391, 771.997 544.354, 761.997 544.318, 751.997 544.279, 741.276 534.279, 741.314 524.279, 741.351 514.279, 741.388 504.279, 741.425 494.279, 741.462 484.279, 741.499 474.279, 741.536 464.279, 741.573 460.190, 741.589 460.227, 751.588 460.264, 761.588 460.300, 771.588 460.337, 781.588 460.374, 791.588 460.410, 801.588 460.447, 811.588 460.483, 821.588 460.523, 832.268 470.523, 832.236 480.523, 832.203 490.522, 832.171 500.522, 832.139 510.522, 832.106 520.522, 832.074 530.522, 832.042 540.522, 832.010 544.611, 831.996" />
<path
id="path98"
fill="none"
stroke="#000"
stroke-linecap="butt"
stroke-linejoin="round"
stroke-opacity="1"
stroke-width="3"
d="M 427.123, 832.395 427.086, 822.395 427.050, 812.395 427.013, 802.396 426.977, 792.396 426.940, 782.396 426.903, 772.396 426.867, 762.396 426.830, 752.396 426.791, 741.712 416.791, 741.750 406.791, 741.787 396.791, 741.824 386.791, 741.861 376.791, 741.898 366.791, 741.935 356.791, 741.972 346.791, 742.009 342.697, 742.025 342.734, 752.025 342.771, 762.024 342.807, 772.024 342.844, 782.024 342.881, 792.024 342.917, 802.024 342.954, 812.024 342.991, 822.024 343.030, 832.688 353.030, 832.653 363.030, 832.618 373.029, 832.584 383.029, 832.549 393.029, 832.514 403.029, 832.479 413.029, 832.444 423.029, 832.410 427.123, 832.395" />
<path
id="path99"
fill="none"
stroke="#000"
stroke-linecap="butt"
stroke-linejoin="round"
stroke-opacity="1"
stroke-width="3"
d="M 343.159, 866.011 343.196, 876.011 343.232, 886.011 343.269, 896.011 343.306, 906.011 343.342, 916.010 343.379, 926.010 343.416, 936.010 343.452, 946.010 343.491, 956.678 353.491, 956.641 363.491, 956.604 373.491, 956.567 383.491, 956.530 393.491, 956.493 403.491, 956.456 413.491, 956.419 423.491, 956.381 427.600, 956.366 427.563, 946.366 427.527, 936.366 427.490, 926.366 427.454, 916.366 427.417, 906.366 427.380, 896.367 427.344, 886.367 427.307, 876.367 427.268, 865.755 417.268, 865.785 407.268, 865.816 397.268, 865.846 387.268, 865.877 377.268, 865.907 367.268, 865.937 357.268, 865.968 347.269, 865.998 343.159, 866.011" />
<path
id="path100"
fill="none"
stroke="#000"
stroke-linecap="butt"
stroke-linejoin="round"
stroke-opacity="1"
stroke-width="3"
d="M 662.424, 955.495 662.388, 945.495 662.352, 935.495 662.317, 925.495 662.281, 915.495 662.245, 905.495 662.210, 895.495 662.174, 885.495 662.138, 875.495 662.101, 865.012 652.101, 865.049 642.101, 865.086 632.101, 865.123 622.101, 865.160 612.101, 865.197 602.101, 865.234 592.101, 865.271 582.101, 865.308 578.030, 865.324 578.067, 875.323 578.103, 885.323 578.140, 895.323 578.177, 905.323 578.213, 915.323 578.250, 925.323 578.287, 935.323 578.323, 945.323 578.362, 955.807 588.362, 955.770 598.361, 955.732 608.361, 955.695 618.361, 955.658 628.361, 955.621 638.361, 955.584 648.361, 955.547 658.361, 955.510 662.424, 955.495" />
<path
id="path101"
fill="none"
stroke="#000"
stroke-linecap="butt"
stroke-linejoin="round"
stroke-opacity="1"
stroke-width="3"
d="M 787.596, 522.582 777.596, 522.620 767.597, 522.657 757.597, 522.694 747.597, 522.731 737.597, 522.768 727.597, 522.805 717.597, 522.842 707.597, 522.879 700.787, 522.905 700.823, 532.904 700.860, 542.904 700.897, 552.904 700.933, 562.904 700.970, 572.904 701.006, 582.904 701.043, 592.904 701.080, 602.904 701.119, 613.598 711.119, 613.561 721.119, 613.524 731.119, 613.487 741.119, 613.450 751.119, 613.413 761.118, 613.376 771.118, 613.339 781.118, 613.302 787.942, 613.276 787.904, 603.276 787.865, 593.276 787.827, 583.276 787.789, 573.277 787.751, 563.277 787.713, 553.277 787.675, 543.277 787.637, 533.277 787.596, 522.582" />
<path
id="path102"
fill="none"
stroke="#000"
stroke-linecap="butt"
stroke-linejoin="round"
stroke-opacity="1"
stroke-width="3"
d="M 957.043, 797.726 949.435, 797.749" />
<path
id="path103"
fill="none"
stroke="#000"
stroke-linecap="butt"
stroke-linejoin="round"
stroke-opacity="1"
stroke-width="3"
d="M 1158.335, 831.436 1156.190, 831.395 1146.190, 831.432 1139.917, 831.455 1139.958, 841.455 1139.999, 851.454 1140.040, 861.454 1140.080, 871.454 1140.121, 881.454 1140.162, 891.454 1140.203, 901.454 1140.244, 911.454 1140.284, 921.454 1140.325, 931.454 1140.366, 941.454 1140.407, 951.454 1140.447, 961.454 1140.488, 971.453 1140.529, 981.453 1140.571, 991.821 1130.571, 991.860 1120.571, 991.899 1110.571, 991.938 1100.841, 991.976 1100.880, 1001.976 1100.918, 1011.976 1100.934, 1016.105 1110.934, 1016.070 1120.934, 1016.034 1130.934, 1015.999 1140.934, 1015.963 1150.934, 1015.928 1160.934, 1015.892 1170.934, 1015.857 1180.934, 1015.821 1190.934, 1015.786 1200.933, 1015.751 1210.933, 1015.715 1220.933, 1015.680 1230.933, 1015.644 1240.933, 1015.609 1250.933, 1015.573 1258.279, 1015.547 1258.258, 1005.547 1258.238, 995.547 1258.217, 985.547 1258.203, 978.863 1248.203, 978.892 1245.587, 978.899 1244.627, 978.874 1234.627, 978.899 1224.627, 978.925 1214.627, 978.951 1204.627, 978.977 1194.627, 979.003 1184.627, 979.029 1174.627, 979.055 1172.294, 979.061 1172.299, 976.679 1182.298, 976.653 1192.298, 976.627 1202.298, 976.601 1212.298, 976.576 1222.298, 976.550 1232.298, 976.524 1242.298, 976.498 1244.631, 976.492 1245.591, 976.518 1245.647, 966.518 1245.703, 956.518 1245.758, 946.518 1245.793, 940.171 1235.793, 940.146 1225.793, 940.121 1215.793, 940.096 1205.793, 940.071 1195.793, 940.047 1185.793, 940.022 1175.793, 939.997 1174.995, 939.995 1175.032, 949.995 1175.055, 956.206 1185.055, 956.186 1195.055, 956.167 1205.055, 956.147 1209.684, 956.138 1209.693, 958.562 1199.693, 958.600 1189.693, 958.637 1179.693, 958.674 1172.667, 958.700 1172.631, 948.700 1172.595, 938.700 1172.559, 928.700 1172.524, 918.700 1172.488, 908.700 1172.452, 898.700 1172.416, 888.700 1172.380, 878.700 1172.344, 868.700 1172.309, 858.701 1172.273, 848.701 1172.237, 838.701 1172.211, 831.380 1162.211, 831.420 1158.335, 831.436" />
<path
id="path104"
fill="none"
stroke="#000"
stroke-linecap="butt"
stroke-linejoin="round"
stroke-opacity="1"
stroke-width="3"
d="M 1174.638, 831.383 1174.672, 841.383 1174.706, 851.383 1174.740, 861.383 1174.774, 871.383 1174.808, 881.383 1174.842, 891.383 1174.876, 901.382 1174.910, 911.382 1174.943, 921.382 1174.977, 931.382 1174.998, 937.561 1184.998, 937.563 1194.998, 937.566 1204.998, 937.569 1214.998, 937.572 1224.998, 937.574 1234.998, 937.577 1244.998, 937.580 1254.998, 937.583 1264.998, 937.585 1274.998, 937.588 1280.672, 937.590 1280.681, 927.590 1280.691, 917.590 1280.701, 907.590 1280.710, 897.590 1280.720, 887.590 1280.729, 877.590 1280.739, 867.590 1280.749, 857.590 1280.758, 847.590 1280.768, 837.590 1280.774, 831.312 1270.774, 831.319 1260.774, 831.326 1250.774, 831.332 1240.774, 831.339 1230.774, 831.346 1220.774, 831.352 1210.774, 831.359 1200.774, 831.366 1190.774, 831.372 1180.774, 831.379 1174.638, 831.383" />
<path
id="path105"
fill="none"
stroke="#000"
stroke-linecap="butt"
stroke-linejoin="round"
stroke-opacity="1"
stroke-width="3"
d="M 1138.079, 948.532 1128.079, 948.569 1118.079, 948.606 1108.079, 948.643 1100.687, 948.671 1100.714, 958.671 1100.738, 967.900 1110.738, 967.860 1120.738, 967.820 1130.738, 967.780 1138.149, 967.750 1138.113, 957.750 1138.079, 948.532" />
<path
id="path106"
fill="none"
stroke="#000"
stroke-linecap="butt"
stroke-linejoin="round"
stroke-opacity="1"
stroke-width="3"
d="M 876.650, 253.862 876.615, 243.862 876.580, 233.862 876.550, 225.241 866.550, 225.278 856.550, 225.315 846.551, 225.352 836.551, 225.389 826.551, 225.426 816.551, 225.463 806.551, 225.500 796.551, 225.537 793.817, 225.548 793.852, 235.548 793.887, 245.547 793.917, 254.169 803.917, 254.132 813.917, 254.095 823.917, 254.058 833.917, 254.021 843.917, 253.984 853.917, 253.947 863.917, 253.910 873.917, 253.872 876.650, 253.862" />
<path
id="path107"
fill="none"
stroke="#000"
stroke-linecap="butt"
stroke-linejoin="round"
stroke-opacity="1"
stroke-width="3"
d="M 875.785, 8.077 865.785, 8.114 855.785, 8.151 845.785, 8.188 835.785, 8.225 825.785, 8.263 815.785, 8.300 805.785, 8.337 795.785, 8.374 785.210, 8.413 785.246, 18.413 785.282, 28.413 785.318, 38.413 785.355, 48.413 785.391, 58.413 785.427, 68.413 785.463, 78.413 785.499, 88.413 785.537, 99.086 793.379, 99.057 793.414, 109.057 793.449, 119.057 793.484, 129.057 793.488, 130.022 803.487, 129.985 813.487, 129.948 823.487, 129.911 833.487, 129.874 843.487, 129.837 853.487, 129.799 863.487, 129.762 873.487, 129.725 876.220, 129.715 876.185, 119.715 876.149, 109.715 876.113, 99.715 876.077, 89.715 876.041, 79.715 876.006, 69.715 875.970, 59.716 875.934, 49.716 875.898, 39.716 875.862, 29.716 875.827, 19.716 875.791, 9.716 875.785, 8.077" />
<path
id="path108"
fill="none"
stroke="#000"
stroke-linecap="butt"
stroke-linejoin="round"
stroke-opacity="1"
stroke-width="3"
d="M 751.906, 8.385 741.906, 8.422 731.906, 8.459 721.906, 8.496 711.906, 8.533 701.906, 8.570 691.906, 8.607 681.906, 8.645 671.906, 8.682 661.249, 8.721 661.285, 18.721 661.322, 28.721 661.359, 38.721 661.395, 48.721 661.432, 58.721 661.469, 68.721 661.505, 78.721 661.542, 88.721 661.579, 98.721 661.615, 108.721 661.652, 118.720 661.688, 128.720 661.695, 130.486 671.695, 130.449 681.695, 130.412 691.695, 130.375 701.695, 130.338 711.695, 130.301 721.694, 130.264 731.694, 130.227 741.694, 130.189 744.623, 130.179 744.587, 120.179 744.550, 110.179 744.513, 100.179 744.509, 99.124 752.238, 99.095 752.201, 89.095 752.165, 79.095 752.128, 69.095 752.092, 59.095 752.055, 49.095 752.018, 39.096 751.982, 29.096 751.945, 19.096 751.906, 8.385" />
<path
id="path109"
fill="none"
stroke="#000"
stroke-linecap="butt"
stroke-linejoin="round"
stroke-opacity="1"
stroke-width="3"
d="M 876.995, 349.271 876.958, 339.271 876.922, 329.271 876.886, 319.271 876.849, 309.271 876.813, 299.271 876.776, 289.271 876.740, 279.271 876.704, 269.271 876.667, 259.272 876.657, 256.302 866.657, 256.339 856.657, 256.376 846.657, 256.413 836.657, 256.451 826.657, 256.488 816.657, 256.525 806.657, 256.562 796.657, 256.599 786.082, 256.638 786.119, 266.638 786.156, 276.638 786.192, 286.638 786.229, 296.638 786.266, 306.638 786.303, 316.638 786.339, 326.638 786.376, 336.638 786.413, 346.638 786.424, 349.607 796.424, 349.570 806.424, 349.533 816.424, 349.496 826.424, 349.459 836.424, 349.422 846.424, 349.384 856.423, 349.347 866.423, 349.310 876.995, 349.271" />
<path
id="path110"
fill="none"
stroke="#000"
stroke-linecap="butt"
stroke-linejoin="round"
stroke-opacity="1"
stroke-width="3"
d="M 752.807, 256.622 742.807, 256.659 732.807, 256.696 722.807, 256.733 712.807, 256.770 702.807, 256.807 692.807, 256.845 682.807, 256.882 672.807, 256.919 662.150, 256.958 662.186, 266.958 662.223, 276.958 662.259, 286.958 662.296, 296.958 662.333, 306.958 662.369, 316.958 662.406, 326.958 662.442, 336.958 662.481, 347.638 672.481, 347.601 682.481, 347.563 692.481, 347.526 702.481, 347.489 712.481, 347.452 722.481, 347.415 732.481, 347.378 742.481, 347.341 753.138, 347.301 753.102, 337.301 753.065, 327.301 753.029, 317.301 752.992, 307.301 752.956, 297.302 752.919, 287.302 752.882, 277.302 752.846, 267.302 752.807, 256.622"
style="fill:#00ffff" />
<path
id="path111"
fill="none"
stroke="#000"
stroke-linecap="butt"
stroke-linejoin="round"
stroke-opacity="1"
stroke-width="3"
d="M 788.273, 707.278 788.238, 697.278 788.203, 687.279 788.167, 677.279 788.132, 667.279 788.097, 657.279 788.062, 647.279 788.026, 637.279 787.991, 627.279 787.956, 617.279 787.950, 615.615 777.950, 615.652 767.950, 615.689 757.950, 615.726 747.950, 615.763 737.951, 615.800 727.951, 615.837 717.951, 615.874 707.951, 615.911 701.127, 615.937 701.188, 625.937 701.249, 635.936 701.309, 645.936 701.370, 655.936 701.430, 665.936 701.491, 675.936 701.552, 685.935 701.612, 695.935 701.673, 705.935 701.683, 707.600 711.683, 707.563 721.683, 707.526 731.683, 707.488 741.683, 707.451 751.682, 707.414 761.682, 707.377 771.682, 707.340 781.682, 707.303 788.273, 707.278" />
<path
id="path112"
fill="none"
stroke="#000"
stroke-linecap="butt"
stroke-linejoin="round"
stroke-opacity="1"
stroke-width="3"
d="M 1137.919, 905.351 1127.919, 905.388 1117.919, 905.425 1107.919, 905.462 1100.515, 905.490 1100.555, 915.490 1100.595, 925.490 1100.635, 935.490 1100.675, 945.489 1100.678, 946.315 1110.678, 946.278 1120.678, 946.240 1130.678, 946.203 1138.070, 946.176 1138.033, 936.176 1137.996, 926.176 1137.959, 916.176 1137.922, 906.176 1137.919, 905.351" />
<path
id="path113"
fill="none"
stroke="#000"
stroke-linecap="butt"
stroke-linejoin="round"
stroke-opacity="1"
stroke-width="3"
d="M 786.432, 352.018 786.469, 362.018 786.505, 372.018 786.542, 382.018 786.579, 392.018 786.615, 402.018 786.652, 412.018 786.670, 416.838 796.670, 416.801 806.669, 416.764 816.669, 416.727 820.583, 416.712 820.546, 406.712 820.510, 396.712 820.473, 386.712 820.436, 376.712 820.400, 366.712 820.363, 356.712 820.345, 351.892 810.345, 351.929 800.346, 351.966 790.346, 352.004 786.432, 352.018" />
<path
id="path114"
fill="none"
stroke="#000"
stroke-linecap="butt"
stroke-linejoin="round"
stroke-opacity="1"
stroke-width="3"
d="M 457.842, 741.597 447.842, 741.634 437.842, 741.671 429.197, 741.704 429.234, 751.703 429.270, 761.703 429.307, 771.703 429.344, 781.703 429.380, 791.703 429.417, 801.703 429.453, 811.703 429.493, 822.416 439.493, 822.378 449.493, 822.340 458.138, 822.306 458.101, 812.306 458.064, 802.307 458.028, 792.307 457.991, 782.307 457.954, 772.307 457.918, 762.307 457.881, 752.307 457.842, 741.597" />
<path
id="path115"
fill="none"
stroke="#000"
stroke-linecap="butt"
stroke-linejoin="round"
stroke-opacity="1"
stroke-width="3"
d="M 575.261, 741.161 565.261, 741.199 555.261, 741.236 546.687, 741.267 546.723, 751.267 546.760, 761.267 546.797, 771.267 546.833, 781.267 546.870, 791.267 546.906, 801.267 546.943, 811.267 546.983, 822.017 556.983, 822.005 566.982, 821.993 575.557, 821.983 575.520, 811.983 575.484, 801.983 575.447, 791.983 575.410, 781.983 575.374, 771.984 575.337, 761.984 575.300, 751.984 575.264, 741.984 575.261, 741.161" />
<path
id="path116"
fill="none"
stroke="#000"
stroke-linecap="butt"
stroke-linejoin="round"
stroke-opacity="1"
stroke-width="3"
d="M 977.796, 382.262 967.796, 382.300 957.796, 382.337 947.796, 382.374 937.796, 382.411 927.796, 382.448 917.796, 382.485 907.796, 382.522 897.796, 382.559 887.797, 382.596 877.797, 382.634 871.694, 382.656 871.736, 392.656 871.779, 402.656 871.822, 412.656 871.865, 422.656 871.908, 432.656 871.950, 442.656 871.993, 452.656 872.036, 462.656 872.082, 473.360 882.082, 473.323 892.082, 473.285 902.082, 473.248 912.081, 473.211 922.081, 473.174 932.081, 473.137 942.081, 473.100 946.042, 473.085 955.156, 472.972 963.767, 472.955 973.767, 472.918 978.128, 472.902 978.091, 462.902 978.055, 452.902 978.018, 442.902 977.981, 432.902 977.945, 422.902 977.908, 412.902 977.872, 402.902 977.835, 392.902 977.796, 382.262" />
<path
id="path117"
fill="none"
stroke="#000"
stroke-linecap="butt"
stroke-linejoin="round"
stroke-opacity="1"
stroke-width="3"
d="M 918.154, 832.317 908.154, 832.355 898.154, 832.392 888.154, 832.429 878.154, 832.466 868.154, 832.503 858.154, 832.540 848.154, 832.577 838.154, 832.614 829.954, 832.645 829.997, 842.645 830.040, 852.645 830.083, 862.645 830.126, 872.644 830.169, 882.644 830.212, 892.644 830.255, 902.644 830.298, 912.644 830.341, 922.644 830.385, 932.644 830.428, 942.644 830.448, 947.318 840.448, 947.280 850.448, 947.243 860.448, 947.206 870.447, 947.169 880.447, 947.132 890.447, 947.095 900.447, 947.058 910.447, 947.021 918.684, 946.990 918.638, 936.990 918.592, 926.990 918.546, 916.990 918.499, 906.991 918.453, 896.991 918.407, 886.991 918.361, 876.991 918.314, 866.991 918.268, 856.991 918.222, 846.991 918.176, 836.991 918.154, 832.317" />
<path
id="path118"
fill="none"
stroke="#000"
stroke-linecap="butt"
stroke-linejoin="round"
stroke-opacity="1"
stroke-width="3"
d="M 788.282, 709.609 778.282, 709.647 768.282, 709.684 758.282, 709.721 748.282, 709.758 738.282, 709.795 728.282, 709.832 718.282, 709.869 708.282, 709.906 701.691, 709.931 701.701, 719.931 701.712, 729.931 701.722, 739.931 701.732, 749.931 701.742, 759.931 701.752, 769.931 701.762, 779.931 701.772, 789.931 701.775, 792.654 711.775, 792.617 721.775, 792.580 731.775, 792.543 741.775, 792.505 751.774, 792.468 761.774, 792.431 771.774, 792.394 781.774, 792.357 788.566, 792.332 788.531, 782.332 788.497, 772.332 788.463, 762.332 788.428, 752.332 788.394, 742.332 788.360, 732.332 788.325, 722.332 788.291, 712.332 788.282, 709.609" />
<path
id="path119"
fill="none"
stroke="#000"
stroke-linecap="butt"
stroke-linejoin="round"
stroke-opacity="1"
stroke-width="3"
d="M 752.693, 223.229 752.656, 213.229 752.620, 203.229 752.583, 193.229 752.546, 183.229 752.510, 173.229 752.473, 163.229 752.436, 153.229 752.400, 143.229 752.361, 132.585 742.361, 132.622 732.361, 132.660 722.361, 132.697 712.361, 132.734 702.361, 132.771 692.361, 132.808 682.361, 132.845 672.361, 132.882 661.704, 132.922 661.740, 142.922 661.777, 152.922 661.814, 162.922 661.850, 172.922 661.887, 182.921 661.924, 192.921 661.960, 202.921 661.997, 212.921 662.036, 223.565 672.036, 223.528 682.036, 223.491 692.036, 223.454 702.036, 223.417 712.036, 223.380 722.035, 223.343 732.035, 223.305 742.035, 223.268 752.693, 223.229" />
<path
id="path120"
fill="none"
stroke="#000"
stroke-linecap="butt"
stroke-linejoin="round"
stroke-opacity="1"
stroke-width="3"
d="M 921.249, 946.981 931.249, 946.943 941.249, 946.906 951.249, 946.869 961.249, 946.832 971.249, 946.795 981.249, 946.758 991.249, 946.721 1001.249, 946.684 1009.184, 946.654 1009.149, 936.654 1009.115, 926.654 1009.080, 916.654 1009.046, 906.654 1009.011, 896.655 1008.977, 886.655 1008.942, 876.655 1008.908, 866.655 1008.873, 856.655 1008.839, 846.655 1008.804, 836.655 1008.788, 831.981 998.788, 832.018 988.788, 832.055 978.788, 832.092 968.788, 832.130 958.788, 832.167 948.788, 832.204 938.788, 832.241 928.788, 832.278 920.540, 832.309 920.602, 842.308 920.664, 852.308 920.726, 862.308 920.788, 872.308 920.849, 882.308 920.911, 892.307 920.973, 902.307 921.035, 912.307 921.097, 922.307 921.159, 932.307 921.220, 942.307 921.249, 946.981" />
<path
id="path121"
fill="none"
stroke="#000"
stroke-linecap="butt"
stroke-linejoin="round"
stroke-opacity="1"
stroke-width="3"
d="M 1098.293, 946.323 1098.254, 936.324 1098.216, 926.324 1098.177, 916.324 1098.139, 906.324 1098.100, 896.324 1098.061, 886.324 1098.023, 876.324 1097.984, 866.324 1097.945, 856.324 1097.907, 846.324 1097.868, 836.324 1097.850, 831.651 1087.850, 831.688 1077.850, 831.725 1067.850, 831.762 1057.850, 831.799 1047.851, 831.836 1037.851, 831.873 1027.851, 831.910 1017.851, 831.947 1011.212, 831.972 1011.249, 841.972 1011.286, 851.972 1011.323, 861.972 1011.359, 871.972 1011.396, 881.972 1011.433, 891.972 1011.470, 901.972 1011.506, 911.972 1011.543, 921.972 1011.580, 931.971 1011.617, 941.971 1011.634, 946.645 1021.634, 946.608 1031.634, 946.571 1041.634, 946.534 1051.634, 946.497 1061.634, 946.460 1071.634, 946.422 1081.634, 946.385 1091.633, 946.348 1098.293, 946.323" />
<path
id="path122"
fill="none"
stroke="#000"
stroke-linecap="butt"
stroke-linejoin="round"
stroke-opacity="1"
stroke-width="3"
d="M 1098.600, 655.932 1101.974, 656.045 1102.028, 646.045 1102.083, 636.046 1102.138, 626.046 1102.193, 616.046 1102.247, 606.046 1102.302, 596.046 1102.357, 586.046 1102.412, 576.046 1102.467, 566.047 1102.521, 556.047 1102.576, 546.047 1102.631, 536.047 1102.653, 532.083 1095.617, 524.977 1088.581, 517.871 1084.917, 514.171 1074.917, 514.210 1064.917, 514.249 1054.917, 514.288 1044.917, 514.327 1034.917, 514.366 1024.917, 514.405 1014.917, 514.444 1004.917, 514.483 994.918, 514.522 984.918, 514.561 974.918, 514.601 965.361, 514.638 965.397, 524.638 965.434, 534.638 965.471, 544.638 965.507, 554.638 965.544, 564.638 965.580, 574.637 965.617, 584.637 965.654, 594.637 965.690, 604.637 965.727, 614.637 965.764, 624.637 965.800, 634.637 965.815, 638.695 965.852, 648.695 965.880, 656.359 975.880, 656.327 985.880, 656.295 995.880, 656.263 1005.880, 656.231 1015.880, 656.198 1025.880, 656.166 1035.880, 656.134 1045.879, 656.102 1055.879, 656.070 1065.879, 656.037 1075.879, 656.005 1085.879, 655.973 1095.879, 655.941 1098.600, 655.932" />
<path
id="path123"
fill="none"
stroke="#000"
stroke-linecap="butt"
stroke-linejoin="round"
stroke-opacity="1"
stroke-width="3"
d="M 744.968, 225.606 734.968, 225.643 724.968, 225.681 714.968, 225.718 704.968, 225.755 694.968, 225.792 684.968, 225.829 674.968, 225.866 664.968, 225.903 662.040, 225.914 662.075, 235.914 662.111, 245.914 662.142, 254.560 672.142, 254.523 682.142, 254.486 692.142, 254.449 702.142, 254.412 712.142, 254.375 722.142, 254.338 732.142, 254.301 742.142, 254.264 745.070, 254.253 745.035, 244.253 744.999, 234.253 744.968, 225.606" />
<path
id="path124"
fill="none"
stroke="#000"
stroke-linecap="butt"
stroke-linejoin="round"
stroke-opacity="1"
stroke-width="3"
d="M 693.148, 864.941 683.148, 864.962 673.148, 864.984 664.460, 865.003 664.499, 875.003 664.538, 885.003 664.577, 895.003 664.617, 905.002 664.656, 915.002 664.695, 925.002 664.734, 935.002 664.754, 939.930 674.753, 939.893 684.753, 939.856 693.422, 939.823 693.386, 929.824 693.349, 919.824 693.313, 909.824 693.276, 899.824 693.239, 889.824 693.203, 879.824 693.166, 869.824 693.148, 864.941" />
<path
id="path125"
fill="none"
stroke="#000"
stroke-linecap="butt"
stroke-linejoin="round"
stroke-opacity="1"
stroke-width="3"
d="M 754.529, 864.450 744.529, 864.531 734.530, 864.613 724.530, 864.695 714.530, 864.777 704.531, 864.858 695.550, 864.932 695.586, 874.932 695.623, 884.932 695.659, 894.932 695.696, 904.932 695.733, 914.931 695.769, 924.931 695.806, 934.931 695.824, 939.815 705.824, 939.777 715.824, 939.740 725.824, 939.703 735.824, 939.666 745.824, 939.629 754.804, 939.596 754.768, 929.596 754.731, 919.596 754.694, 909.596 754.658, 899.596 754.621, 889.596 754.584, 879.596 754.548, 869.596 754.529, 864.450" />
<path
id="path126"
fill="none"
stroke="#000"
stroke-linecap="butt"
stroke-linejoin="round"
stroke-opacity="1"
stroke-width="3"
d="M 786.111, 864.331 776.111, 864.369 766.111, 864.406 756.897, 864.441 756.933, 874.441 756.970, 884.441 757.007, 894.441 757.043, 904.441 757.080, 914.441 757.117, 924.441 757.153, 934.440 757.172, 939.587 767.172, 939.550 777.172, 939.513 786.386, 939.478 786.350, 929.479 786.313, 919.479 786.277, 909.479 786.240, 899.479 786.203, 889.479 786.167, 879.479 786.130, 869.479 786.111, 864.331" />
<path
id="path127"
fill="none"
stroke="#000"
stroke-linecap="butt"
stroke-linejoin="round"
stroke-opacity="1"
stroke-width="3"
d="M 1137.781, 868.391 1127.781, 868.428 1117.781, 868.465 1107.781, 868.503 1100.377, 868.530 1100.414, 878.530 1100.452, 888.530 1100.489, 898.530 1100.506, 903.117 1110.506, 903.080 1120.506, 903.043 1130.506, 903.006 1137.910, 902.978 1137.873, 892.978 1137.835, 882.978 1137.798, 872.979 1137.781, 868.391" />
<path
id="path128"
fill="none"
stroke="#000"
stroke-linecap="butt"
stroke-linejoin="round"
stroke-opacity="1"
stroke-width="3"
d="M 1264.600, 440.955 1264.604, 430.955 1264.607, 420.955 1264.610, 410.955 1264.614, 400.955 1264.617, 390.955 1264.620, 380.955 1264.624, 370.955 1264.627, 360.955 1264.631, 350.425 1254.631, 350.441 1244.631, 350.458 1234.631, 350.475 1224.631, 350.491 1214.631, 350.508 1204.631, 350.524 1194.631, 350.541 1184.631, 350.558 1174.631, 350.574 1164.631, 350.591 1154.631, 350.607 1144.631, 350.624 1143.003, 350.627 1143.035, 360.627 1143.067, 370.627 1143.099, 380.627 1143.131, 390.627 1143.163, 400.627 1143.195, 410.626 1143.227, 420.626 1143.259, 430.626 1143.293, 441.363 1153.293, 441.329 1163.293, 441.295 1173.293, 441.262 1183.293, 441.228 1193.293, 441.195 1203.293, 441.161 1213.293, 441.127 1223.293, 441.094 1233.293, 441.060 1243.292, 441.027 1253.292, 440.993 1263.292, 440.959 1264.600, 440.955" />
<path
id="path129"
fill="none"
stroke="#000"
stroke-linecap="butt"
stroke-linejoin="round"
stroke-opacity="1"
stroke-width="3"
d="M 1257.370, 790.346 1257.355, 780.346 1257.340, 770.346 1257.325, 760.346 1257.309, 750.346 1257.294, 740.346 1257.279, 730.346 1257.264, 720.346 1257.249, 710.346 1257.233, 699.671 1247.233, 699.708 1237.233, 699.745 1227.233, 699.782 1217.233, 699.819 1207.233, 699.856 1197.233, 699.893 1187.233, 699.930 1177.233, 699.968 1167.233, 700.005 1157.233, 700.042 1147.233, 700.079 1143.773, 700.092 1143.803, 710.092 1143.833, 720.092 1143.863, 730.092 1143.893, 740.092 1143.922, 750.092 1143.952, 760.091 1143.982, 770.091 1144.012, 780.091 1144.043, 790.737 1154.043, 790.702 1164.043, 790.668 1174.043, 790.633 1184.043, 790.599 1194.043, 790.564 1204.043, 790.530 1214.043, 790.495 1224.043, 790.461 1234.043, 790.427 1244.043, 790.392 1254.043, 790.358 1257.370, 790.346" />
<path
id="path130"
fill="none"
stroke="#000"
stroke-linecap="butt"
stroke-linejoin="round"
stroke-opacity="1"
stroke-width="3"
d="M 823.411, 664.860 823.403, 662.746 823.386, 652.746 823.369, 642.746 823.351, 632.746 823.334, 622.746 823.317, 612.746 823.299, 602.746 823.282, 592.746 823.265, 582.746 823.247, 572.746 823.230, 562.746 823.213, 552.746 823.195, 542.746 823.177, 532.274 830.260, 525.216 837.344, 518.156 842.834, 512.685 852.834, 512.649 862.834, 512.612 872.834, 512.576 882.834, 512.540 892.834, 512.503 902.834, 512.467 912.833, 512.431 922.833, 512.395 932.833, 512.358 942.833, 512.322 952.833, 512.286 962.833, 512.250 972.833, 512.213 982.833, 512.177 992.833, 512.141 1002.833, 512.104 1012.833, 512.068 1022.833, 512.032 1032.833, 511.996 1042.833, 511.959 1052.833, 511.923 1062.833, 511.887 1072.832, 511.850 1082.832, 511.814 1086.499, 511.801 1093.537, 518.904 1100.576, 526.008 1105.050, 530.523 1105.024, 540.523 1104.998, 550.523 1104.972, 560.523 1104.946, 570.522 1104.921, 580.522 1104.895, 590.522 1104.869, 600.522 1104.843, 610.522 1104.817, 620.522 1104.791, 630.522 1104.766, 640.522 1104.740, 650.522 1104.714, 660.522 1104.706, 663.552 1102.273, 663.532 1102.257, 659.176 1092.257, 659.224 1082.258, 659.273 1072.258, 659.321 1062.258, 659.369 1052.258, 659.418 1042.258, 659.466 1032.258, 659.515 1022.258, 659.563 1012.258, 659.611 1002.258, 659.660 992.259, 659.708 982.259, 659.757 972.259, 659.805 961.755, 659.856 951.755, 659.904 941.755, 659.953 931.755, 660.001 921.755, 660.049 911.755, 660.098 901.756, 660.146 891.756, 660.195 881.756, 660.243 871.756, 660.291 861.756, 660.340 851.756, 660.388 841.756, 660.437 831.756, 660.485 825.806, 660.514 825.841, 664.883 823.411, 664.860" />
<path
id="path131"
fill="none"
stroke="#000"
stroke-linecap="butt"
stroke-linejoin="round"
stroke-opacity="1"
stroke-width="3"
d="M 1177.064, 472.494 1185.496, 472.462 1193.765, 472.432" />
<path
id="path132"
fill="none"
stroke="#000"
stroke-linecap="butt"
stroke-linejoin="round"
stroke-opacity="1"
stroke-width="3"
d="M 1167.599, 472.529 1177.064, 472.494 1177.399, 472.518" />
<path
id="path133"
fill="none"
stroke="#000"
stroke-linecap="butt"
stroke-linejoin="round"
stroke-opacity="1"
stroke-width="3"
d="M 717.000, 794.980 717.036, 804.979 717.073, 814.979 717.110, 824.979 717.111, 825.378 723.151, 825.355 723.164, 831.406 733.164, 831.369 733.842, 831.366 734.436, 831.327 734.400, 821.327 734.363, 811.327 734.326, 801.327 734.303, 794.915 724.303, 794.952 717.000, 794.980" />
<path
id="path134"
fill="none"
stroke="#000"
stroke-linecap="butt"
stroke-linejoin="round"
stroke-opacity="1"
stroke-width="3"
d="M 1234.999, 443.433 1235.036, 453.433 1235.072, 463.433 1235.105, 472.278 1245.105, 472.241 1255.104, 472.204 1264.671, 472.168 1264.647, 462.168 1264.622, 452.168 1264.600, 443.323 1254.600, 443.360 1244.600, 443.398 1234.999, 443.433" />
<path
id="path135"
fill="none"
stroke="#000"
stroke-linecap="butt"
stroke-linejoin="round"
stroke-opacity="1"
stroke-width="3"
d="M 1138.158, 970.183 1128.158, 970.221 1118.158, 970.259 1108.158, 970.297 1100.747, 970.325 1100.791, 980.324 1100.832, 989.533 1110.832, 989.496 1120.832, 989.460 1130.832, 989.423 1138.229, 989.396 1138.192, 979.396 1138.158, 970.183" />
<path
id="path136"
fill="none"
stroke="#000"
stroke-linecap="butt"
stroke-linejoin="round"
stroke-opacity="1"
stroke-width="3"
d="M 869.637, 473.369 869.606, 463.369 869.575, 453.369 869.544, 443.369 869.513, 433.369 869.482, 423.369 869.450, 413.369 869.419, 403.369 869.388, 393.369 869.355, 382.665 859.355, 382.702 849.355, 382.739 839.355, 382.776 829.355, 382.813 825.171, 382.829 825.207, 392.829 825.244, 402.829 825.281, 412.829 825.317, 422.829 825.354, 432.829 825.391, 442.828 825.427, 452.828 825.464, 462.828 825.503, 473.533 835.503, 473.495 845.503, 473.458 855.503, 473.421 865.503, 473.384 869.637, 473.369" />
<path
id="path137"
fill="none"
stroke="#000"
stroke-linecap="butt"
stroke-linejoin="round"
stroke-opacity="1"
stroke-width="3"
d="M 1009.290, 472.789 1009.253, 462.789 1009.216, 452.789 1009.180, 442.789 1009.143, 432.789 1009.106, 422.789 1009.070, 412.789 1009.033, 402.789 1008.997, 392.789 1008.958, 382.147 998.958, 382.184 988.958, 382.221 980.214, 382.253 980.251, 392.253 980.288, 402.253 980.324, 412.253 980.361, 422.253 980.397, 432.253 980.434, 442.253 980.471, 452.253 980.507, 462.253 980.546, 472.893 990.546, 472.857 1000.546, 472.820 1009.290, 472.789" />
<path
id="path138"
fill="none"
stroke="#000"
stroke-linecap="butt"
stroke-linejoin="round"
stroke-opacity="1"
stroke-width="3"
d="M 1196.797, 1018.132 1196.833, 1028.132 1196.869, 1038.132 1196.905, 1048.132 1196.941, 1058.132 1196.977, 1068.132 1196.983, 1069.765 1206.983, 1069.724 1216.983, 1069.682 1226.527, 1069.643 1226.491, 1059.643 1226.454, 1049.643 1226.417, 1039.643 1226.381, 1029.643 1226.344, 1019.643 1226.338, 1018.023 1216.338, 1018.060 1206.338, 1018.097 1196.797, 1018.132" />
<path
id="path139"
fill="none"
stroke="#000"
stroke-linecap="butt"
stroke-linejoin="round"
stroke-opacity="1"
stroke-width="3"
d="M 1228.732, 1018.014 1228.769, 1028.014 1228.806, 1038.014 1228.842, 1048.014 1228.879, 1058.014 1228.915, 1068.014 1228.921, 1069.634 1238.921, 1069.595 1248.921, 1069.557 1258.468, 1069.520 1258.432, 1059.520 1258.395, 1049.520 1258.358, 1039.520 1258.322, 1029.520 1258.285, 1019.520 1258.279, 1017.964 1248.279, 1017.981 1238.279, 1017.998 1228.732, 1018.014" />
<path
id="path140"
fill="none"
stroke="#000"
stroke-linecap="butt"
stroke-linejoin="round"
stroke-opacity="1"
stroke-width="3"
d="M 1133.111, 1070.002 1130.757, 1070.011 1130.721, 1060.011 1130.684, 1050.011 1130.648, 1040.011 1130.611, 1030.011 1130.574, 1020.011 1130.568, 1018.378 1120.568, 1018.415 1110.568, 1018.452 1100.943, 1018.488 1100.989, 1028.488 1101.034, 1038.488 1101.080, 1048.488 1101.125, 1058.488 1101.171, 1068.488 1101.178, 1070.133 1111.178, 1070.092 1121.178, 1070.050 1130.757, 1070.011" />
<path
id="path141"
fill="none"
stroke="#000"
stroke-linecap="butt"
stroke-linejoin="round"
stroke-opacity="1"
stroke-width="3"
d="M 1194.467, 1018.141 1184.467, 1018.178 1174.467, 1018.215 1164.884, 1018.251 1164.925, 1028.251 1164.966, 1038.251 1165.007, 1048.251 1165.048, 1058.251 1165.089, 1068.250 1165.095, 1069.870 1175.095, 1069.837 1185.095, 1069.805 1194.654, 1069.774 1194.618, 1059.774 1194.581, 1049.774 1194.545, 1039.774 1194.509, 1029.774 1194.473, 1019.774 1194.467, 1018.141" />
<path
id="path142"
fill="none"
stroke="#000"
stroke-linecap="butt"
stroke-linejoin="round"
stroke-opacity="1"
stroke-width="3"
d="M 1102.388, 472.418 1102.344, 462.418 1102.301, 452.418 1102.257, 442.418 1102.214, 432.418 1102.170, 422.418 1102.127, 412.418 1102.083, 402.418 1102.040, 392.418 1101.996, 382.419 1101.953, 372.419 1101.909, 362.419 1101.866, 352.419 1101.858, 350.748 1091.859, 350.785 1081.859, 350.822 1071.859, 350.859 1061.859, 350.896 1051.859, 350.933 1041.859, 350.970 1031.859, 351.007 1021.859, 351.045 1011.176, 351.084 1011.212, 361.084 1011.249, 371.084 1011.286, 381.084 1011.322, 391.084 1011.359, 401.084 1011.395, 411.084 1011.432, 421.084 1011.469, 431.084 1011.505, 441.084 1011.542, 451.083 1011.579, 461.083 1011.615, 471.083 1011.621, 472.780 1021.621, 472.740 1031.621, 472.700 1041.621, 472.660 1051.621, 472.620 1061.621, 472.581 1071.621, 472.541 1081.621, 472.501 1091.621, 472.461 1102.388, 472.418" />
<path
id="path143"
fill="none"
stroke="#000000"
stroke-linecap="butt"
stroke-linejoin="round"
stroke-opacity="1"
stroke-width="3"
d="m 1264.762,510.996 -0.025,-10 -0.025,-10 -0.024,-10 -0.016,-6.43 -10,0.038 -10,0.037 -10,0.037 -10,0.037 -10,0.037 -10,0.037 -8.321,0.031 0.037,10 0.037,10 0.037,10 0.023,6.421 10,-0.036 10,-0.036 10,-0.036 10,-0.036 10,-0.035 10,-0.036 8.277,-0.03"
style="display:inline" />
<path
id="path144"
fill="none"
stroke="#000"
stroke-linecap="butt"
stroke-linejoin="round"
stroke-opacity="1"
stroke-width="3"
d="M 661.997, 831.633 661.960, 821.633 661.923, 811.633 661.887, 801.633 661.850, 791.633 661.813, 781.633 661.777, 771.633 661.740, 761.633 661.704, 751.634 661.664, 740.841 651.664, 740.878 641.664, 740.915 631.664, 740.952 621.664, 740.989 611.664, 741.026 601.664, 741.063 591.664, 741.101 581.665, 741.138 577.611, 741.153 577.648, 751.153 577.684, 761.153 577.721, 771.153 577.758, 781.152 577.794, 791.152 577.831, 801.152 577.867, 811.152 577.904, 821.152 577.944, 831.944 587.944, 831.907 597.944, 831.870 607.943, 831.833 617.943, 831.796 627.943, 831.759 637.943, 831.722 647.943, 831.685 657.943, 831.648 661.997, 831.633" />
<path
id="path145"
fill="none"
stroke="#000"
stroke-linecap="butt"
stroke-linejoin="round"
stroke-opacity="1"
stroke-width="3"
d="M 664.364, 831.624 674.364, 831.584 684.364, 831.543 694.364, 831.502 704.364, 831.461 709.423, 831.441 709.402, 825.406 715.351, 825.384 715.315, 815.384 715.278, 805.384 715.241, 795.384 715.240, 794.986 705.240, 795.023 695.240, 795.060 685.240, 795.097 675.240, 795.135 665.240, 795.172 664.230, 795.175 664.267, 805.175 664.304, 815.175 664.340, 825.175 664.364, 831.624" />
</g>
</g>
<g id="labels">

<text x="705" y="70" class="room-label">264</text>
<text x="835" y="75" class="room-label">265</text>
<text x="835" y="175" class="room-label">267</text>
<text x="835" y="300" class="room-label">269</text>
<text x="705" y="175" class="room-label">263</text>
<text x="705" y="300" class="room-label">261</text>
<text x="685" y="443" class="room-label">259</text>
<text x="745" y="570" class="room-label">253</text>


<text x="925" y="430" class="room-label">274</text>
<text x="1060" y="415" class="room-label">275</text>
<text x="1205" y="400" class="room-label">278</text>

<text x="1205" y="610" class="room-label">282</text>
<text x="1205" y="755" class="room-label">284</text>

<text x="620" y="785" class="room-label">246</text>
<text x="505" y="785" class="room-label">245</text>
<text x="385" y="785" class="room-label">244</text>
<text x="620" y="910" class="room-label">240</text>
<text x="505" y="910" class="room-label">241</text>
<text x="385" y="910" class="room-label">242</text>


<text x="1033.5" y="590" class="room-label">Knjinica</text>
<text x="892" y="590" class="room-label">Predav.</text>

<text x="1055" y="865" class="room-label">Uit.</text>
<text x="1055" y="900" class="room-label">Jedil.</text>

<text x="745" y="740" class="room-label">Fab</text>
<text x="745" y="770" class="room-label">lab</text>
</g>
<style>
.room-label 
{
font-family: Arial, sans-serif;
font-size: 30px;
font-weight: 700;
fill: #00ffff;
text-anchor: middle;
dominant-baseline: middle;
pointer-events: none;
user-select: none;
}
<!--			
* {
margin: 0;
padding: 0;
}
body {
background-color: #01171b;
}
svg path{
fill: #00394f;
stroke: #eee;
stroke-width: .25;
}
svg path:hover{
fill: #006284;
transition: 0.6s;
cursor: pointer;
}
!-->
</style>
</svg>